<svg width="24" height="24" viewBox="0 0 24 24" fill="none" xmlns="http://www.w3.org/2000/svg">
  <path d="M21 11C21 16.5228 16.5228 21 11 21C5.47715 21 1 16.5228 1 11C1 5.47715 5.47715 1 11 1C16.5228 1 21 5.47715 21 11Z" stroke="currentColor" stroke-width="2"/>
  <path d="M14.5 8.5C14.5 10.433 12.933 12 11 12C9.067 12 7.5 10.433 7.5 8.5C7.5 6.567 9.067 5 11 5C12.933 5 14.5 6.567 14.5 8.5Z" stroke="currentColor" stroke-width="2"/>
  <path d="M4 17.5C4 17.5 6.5 14.5 11 14.5C15.5 14.5 18 17.5 18 17.5" stroke="currentColor" stroke-width="2" stroke-linecap="round"/>
</svg> 