<svg width="24" height="24" viewBox="0 0 24 24" fill="none" xmlns="http://www.w3.org/2000/svg">
  <path d="M16.5 13C17.8807 13 19 11.8807 19 10.5C19 9.11929 17.8807 8 16.5 8C15.1193 8 14 9.11929 14 10.5C14 11.8807 15.1193 13 16.5 13Z" fill="currentColor"/>
  <path d="M7.5 13C8.88071 13 10 11.8807 10 10.5C10 9.11929 8.88071 8 7.5 8C6.11929 8 5 9.11929 5 10.5C5 11.8807 6.11929 13 7.5 13Z" fill="currentColor"/>
  <path d="M19 17C19 15.3431 17.6569 14 16 14H17C18.6569 14 20 15.3431 20 17V18C20 18.5523 19.5523 19 19 19H16.5C16.2239 19 16 18.7761 16 18.5C16 18.2239 16.2239 18 16.5 18H18V17C18 15.8954 17.1046 15 16 15H8C6.89543 15 6 15.8954 6 17V18H7.5C7.77614 18 8 18.2239 8 18.5C8 18.7761 7.77614 19 7.5 19H5C4.44772 19 4 18.5523 4 18V17C4 15.3431 5.34315 14 7 14H8C6.34315 14 5 15.3431 5 17" fill="currentColor"/>
</svg> 