<?xml version="1.0" standalone="no"?>
<svg xmlns="http://www.w3.org/2000/svg" viewBox="0 0 1024 1024">
  <path d="M692.3 347.5c11.3 0 22.4 0.8 33.4 2.1-30-140-179.2-244-349.3-244-190.4 0-346.8 130.2-346.8 295.1 0 95.2 52 173.5 138.7 234.3l-34.7 104.4 121.2-60.7c43.4 8.6 78.2 17.4 121.4 17.4 10.9 0 21.6-0.5 32.2-1.4-6.8-23.2-10.7-47.6-10.7-72.9 0.1-151.6 130.1-274.3 294.6-274.3zM500.9 248.4c26.1 0 47.2 21.2 47.2 47.2 0 26.1-21.2 47.2-47.2 47.2-26.1 0-52.3-21.2-52.3-47.2 0-26.1 26.2-47.2 52.3-47.2zM284.8 342.8c-26.1 0-52.3-21.2-52.3-47.2 0-26.1 26.2-47.2 52.3-47.2 26.1 0 47.2 21.2 47.2 47.2 0 26-21.1 47.2-47.2 47.2z" fill="currentColor"/>
  <path d="M1004.8 629.3c0-138.4-138.7-251.2-294.6-251.2-165 0-295.1 112.8-295.1 251.2 0 138.7 130.2 251.2 295.1 251.2 34.5 0 69.4-8.7 104.1-17.4l95.2 52.3-26.1-87c69.7-52.5 121.4-121.5 121.4-199.1z m-390.7-43.7c-17.4 0-34.7-17.4-34.7-34.7 0-17.4 17.4-34.7 34.7-34.7 26.1 0 43.7 17.4 43.7 34.7 0 17.3-17.6 34.7-43.7 34.7z m190.4 0c-17.3 0-34.5-17.4-34.5-34.7 0-17.4 17.2-34.7 34.5-34.7 26.1 0 43.7 17.4 43.7 34.7 0.1 17.3-17.6 34.7-43.7 34.7z" fill="currentColor"/>
</svg> 